<svg width="1440" height="1415" viewBox="0 0 1440 1415" fill="none" xmlns="http://www.w3.org/2000/svg">
    <g filter="url(#filter0_d_102_379)">
        <path d="M1964 703.502C1964 1091.48 1404.8 1406 715 1406M1964 703.502C1964 315.525 1404.8 1.00701 715 1.00701M1964 703.502H-534M715 1406C25.1963 1406 -534 1091.48 -534 703.502M715 1406V1.00701M-534 703.502C-534 315.525 25.1963 1.00701 715 1.00701M715 1C246.983 59.9924 -108.56 352.067 -108.56 703.495C-108.56 1054.92 246.983 1347 714.999 1405.99M715 1C113.898 59.9924 -342.747 352.067 -342.748 703.495C-342.748 1054.92 113.898 1347 714.999 1405.99M715 1C481.986 94.8619 312.978 373.884 312.977 703.495C312.977 1033.11 481.986 1312.13 714.999 1405.99M715 1C592.487 153.858 512.037 411.465 512.037 703.495C512.037 995.525 592.487 1253.13 714.999 1405.99M715 1C357.561 94.8619 98.3055 373.883 98.3055 703.495C98.3054 1033.11 357.561 1312.13 714.999 1405.99M715.001 1406C1183.02 1347.01 1538.56 1054.93 1538.56 703.505C1538.56 352.078 1183.02 60.0027 715.001 1.01024M715.001 1406C1316.1 1347.01 1772.75 1054.93 1772.75 703.505C1772.75 352.078 1316.1 60.0027 715.001 1.01024M715.001 1406C948.015 1312.14 1117.02 1033.12 1117.02 703.505C1117.02 373.894 948.015 94.8722 715.001 1.01024M715.001 1406C837.514 1253.14 917.964 995.535 917.964 703.505C917.964 411.475 837.514 153.868 715.001 1.01024M715.001 1406C1072.44 1312.14 1331.7 1033.12 1331.7 703.505C1331.7 373.894 1072.44 94.8722 715.001 1.01024M-385.683 369.817C-98.7573 462.347 288.661 519.097 714.998 519.097C1141.34 519.097 1528.75 462.347 1815.68 369.817M1905.45 488.363C1575.33 568.238 1162.68 615.69 714.999 615.69C267.318 615.69 -145.334 568.238 -475.454 488.363M-260.783 264.443C0.0267871 364.235 341.381 424.699 714.998 424.699C1088.62 424.699 1429.97 364.235 1690.78 264.443M47.5639 108.577C238.777 189.032 468.247 235.904 714.998 235.904C961.75 235.904 1191.22 189.032 1382.43 108.577M974.555 16.1239C892.813 40.3428 805.579 53.4312 714.998 53.4312C624.416 53.4312 537.182 40.3428 455.44 16.1239M1538.56 174.435C1350.28 269.172 1049.33 330.301 714.998 330.301C380.67 330.301 79.7159 269.172 -108.561 174.435M1191.18 53.6939C1061.86 112.658 895.939 148.092 714.998 148.092C534.057 148.092 368.131 112.658 238.817 53.6939M1815.68 1037.18C1528.76 944.652 1141.34 887.902 715 887.902C288.663 887.902 -98.7558 944.652 -385.682 1037.18M-475.455 918.636C-145.335 838.761 267.317 791.309 714.999 791.309C1162.68 791.309 1575.33 838.761 1905.45 918.636M1690.78 1142.56C1429.97 1042.76 1088.62 982.3 714.999 982.3C341.381 982.3 0.0268146 1042.76 -260.783 1142.56M1382.43 1298.42C1191.22 1217.97 961.749 1171.1 714.997 1171.1C468.246 1171.1 238.776 1217.97 47.563 1298.42M455.441 1390.87C537.184 1366.66 624.418 1353.57 714.999 1353.57C805.58 1353.57 892.814 1366.66 974.557 1390.87M-108.56 1232.56C79.7166 1137.83 380.671 1076.7 714.999 1076.7C1049.33 1076.7 1350.28 1137.83 1538.56 1232.56M238.816 1353.3C368.131 1294.34 534.057 1258.91 714.998 1258.91C895.938 1258.91 1061.86 1294.34 1191.18 1353.3" stroke="white" stroke-opacity="0.1" shape-rendering="crispEdges"/>
    </g>
    <defs>
        <filter id="filter0_d_102_379" x="-538.5" y="0.386475" width="2507" height="1414.23" filterUnits="userSpaceOnUse" color-interpolation-filters="sRGB">
        <feFlood flood-opacity="0" result="BackgroundImageFix"/>
        <feColorMatrix in="SourceAlpha" type="matrix" values="0 0 0 0 0 0 0 0 0 0 0 0 0 0 0 0 0 0 127 0" result="hardAlpha"/>
        <feOffset dy="4"/>
        <feGaussianBlur stdDeviation="2"/>
        <feComposite in2="hardAlpha" operator="out"/>
        <feColorMatrix type="matrix" values="0 0 0 0 0 0 0 0 0 0 0 0 0 0 0 0 0 0 0.25 0"/>
        <feBlend mode="normal" in2="BackgroundImageFix" result="effect1_dropShadow_102_379"/>
        <feBlend mode="normal" in="SourceGraphic" in2="effect1_dropShadow_102_379" result="shape"/>
        </filter>
    </defs>
</svg>
