<?xml version="1.0" encoding="UTF-8"?><svg id="Calque_1" xmlns="http://www.w3.org/2000/svg" viewBox="0 0 761.64 148.44"><defs><style>.cls-1{fill:#fff;}</style></defs><path class="cls-1" d="M92.76,9.87C86.19,3.3,78.31,.01,69.12,.01H33.29C24.1,.01,16.25,3.3,9.75,9.87S0,24.32,0,33.51V114.93c0,9.19,3.25,17.07,9.75,23.64,6.51,6.57,14.35,9.86,23.54,9.86h35.83c9.19,0,17.07-3.29,23.64-9.86,6.57-6.57,9.86-14.45,9.86-23.64v-10.39c0-2.26-1.13-3.39-3.39-3.39h-13.78c-2.26,0-3.39,1.13-3.39,3.39v23.32H20.36V20.57h61.71v23.32c0,2.26,1.13,3.39,3.39,3.39h13.78c2.26,0,3.39-1.13,3.39-3.39v-10.39h-.01c0-9.18-3.29-17.06-9.86-23.63Z"/><path class="cls-1" d="M233.87,0h-65.73c-2.26,0-3.39,1.13-3.39,3.39V145.03h0c0,2.26,1.13,3.39,3.39,3.39h13.57c2.26,0,3.39-1.13,3.39-3.39v-60.64h51.31c2.83,0,5.27,.99,7.32,2.97,2.04,1.98,3.07,4.38,3.07,7.21v50.47c0,2.26,1.13,3.39,3.39,3.39h13.78c2.26,0,3.39-1.13,3.39-3.39v-48.98c0-2.83-1.02-5.23-3.07-7.21s-4.49-2.97-7.31-2.97h-2.76c-2.83,0-5.27-1.02-7.32-3.07s-3.07-4.49-3.07-7.32v-2.76c0-2.83,1.02-5.27,3.07-7.32,2.05-2.04,4.49-3.07,7.32-3.07h2.76c2.82,0,5.26-.99,7.31-2.97,2.04-1.98,3.07-4.38,3.07-7.21v-18.66c0-9.19-3.29-17.07-9.86-23.64S243.06,0,233.87,0Zm12.94,53.64c0,2.83-1.03,5.23-3.07,7.21-2.06,1.98-4.49,2.97-7.32,2.97h-51.31V20.56h61.7V53.64Z"/><path class="cls-1" d="M428.73,127.85h-68.49c-2.82,0-5.26-.99-7.31-2.97-2.05-1.98-3.07-4.38-3.07-7.21v-46.94h68.49c1.87,0,3.39-1.52,3.39-3.39v-13.78c0-1.87-1.52-3.39-3.39-3.39h-68.5c-1.55,.05-3.1,.04-4.65,0-8.85-.24-16.18,6.79-16.09,15.65,.12,12.29,.25,38.47,.38,50.36,0,2.83,.99,5.23,2.97,7.21,1.98,1.98,4.38,2.97,7.21,2.97h2.76c2.83,0,5.27,1.02,7.32,3.07,2.04,2.06,3.07,4.49,3.07,7.32v8.27c0,1.87,1.52,3.39,3.39,3.39h72.52c1.87,0,3.39-1.52,3.39-3.39v-13.78c0-1.87-1.52-3.39-3.39-3.39Z"/><path class="cls-1" d="M563.38,0h-35.83c-9.19,0-17.04,3.29-23.54,9.86s-9.75,14.45-9.75,23.64v17.39c0,2.83,.99,5.23,2.97,7.21s4.38,2.97,7.21,2.97h1.48c2.83,0,5.23,.99,7.21,2.97,1.98,1.98,2.97,4.38,2.97,7.21v9.75c0,2.26,1.13,3.39,3.39,3.39h46.41c2.83,0,5.27,1.03,7.32,3.08,2.04,2.06,3.07,4.49,3.07,7.32v33.08h-61.7v-23.32c0-2.26-1.13-3.39-3.39-3.39h-13.57c-2.26,0-3.39,1.13-3.39,3.39v10.39c0,9.19,3.25,17.07,9.75,23.64,6.51,6.57,14.35,9.86,23.54,9.86h35.83c9.19,0,17.07-3.29,23.64-9.86s9.86-14.45,9.86-23.64v-17.39c0-2.83-1.02-5.23-3.07-7.21s-4.49-2.97-7.31-2.97h-1.27c-2.83,0-5.27-1.02-7.31-3.07-2.05-2.05-3.07-4.49-3.07-7.32v-9.54c0-2.41-1.13-3.61-3.39-3.61h-46.44c-2.82,0-5.26-.99-7.31-2.97-2.05-1.98-3.07-4.38-3.07-7.21V20.57h61.7v23.32c0,2.26,1.13,3.39,3.39,3.39h13.78c2.26,0,3.39-1.13,3.39-3.39v-10.39c0-9.19-3.29-17.07-9.86-23.64s-14.45-9.86-23.64-9.86Z"/><path class="cls-1" d="M430.99,.5h-100.33c-.94,0-1.7,.76-1.7,1.7V14.69c0,3.47,2.81,6.28,6.28,6.28h95.75c.94,0,1.7-.76,1.7-1.7V2.2c0-.94-.76-1.7-1.7-1.7Z"/><path class="cls-1" d="M758.25,.01h0S662.41,0,662.41,0c-1.87,0-3.39,1.52-3.39,3.39v13.57c0,2.41,1.13,3.61,3.39,3.61h37.53v124.47c0,1.87,1.52,3.39,3.39,3.39h13.78c1.87,0,3.39-1.52,3.39-3.39V23.49c0-1.61,1.31-2.92,2.92-2.92h12.66c1.42,0,2.58,1.16,2.58,2.58v7.52c0,1.44,1.16,2.6,2.6,2.6h17.78c1.44,0,2.6-1.16,2.6-2.6V3.4c0-1.87-1.52-3.39-3.39-3.39Z"/></svg>